<?xml version="1.0" encoding="iso-8859-1"?>
<!-- Uploaded to: SVG Repo, www.svgrepo.com, Generator: SVG Repo Mixer Tools -->
<svg height="800px" width="800px" version="1.1" id="Layer_1" xmlns="http://www.w3.org/2000/svg" xmlns:xlink="http://www.w3.org/1999/xlink" 
	 viewBox="0 0 508 508" xml:space="preserve">
<circle style="fill:#90DFAA;" cx="254" cy="254" r="254"/>
<path style="fill:#2B3B4E;" d="M114.4,93.6c-10,0-18.4,8.4-18.4,18.4v340.8c11.6,9.2,24,17.6,36.8,24.4V112
	C132.8,101.6,124.4,93.6,114.4,93.6z"/>
<path style="fill:#324A5E;" d="M72.8,155.6L72.8,155.6c0,4.4,3.6,8.4,8.4,8.4h346.4c4.4,0,8.4-3.6,8.4-8.4l0,0
	c0-4.4-3.6-8.4-8.4-8.4H80.8C76.4,147.2,72.8,151.2,72.8,155.6z"/>
<path style="fill:#FFFFFF;" d="M420,373.6H171.2c-8.4,0-15.2-6.8-15.2-15.2V205.6c0-8.4,6.8-15.2,15.2-15.2H420
	c8.4,0,15.2,6.8,15.2,15.2v152.8C435.2,366.8,428.4,373.6,420,373.6z"/>
<g>
	<path style="fill:#FF7058;" d="M286,334.4c0,2-1.6,4-4,4h-22c-2.4,0-4-1.6-4-4v-40c0-2,1.6-4,4-4h22c2.4,0,4,1.6,4,4s-1.6,4-4,4
		h-18v12h14c2,0,4,1.6,4,4c0,2-1.6,4-4,4h-14v12h18C284.4,330.4,286,332,286,334.4z"/>
	<path style="fill:#FF7058;" d="M326.8,336.4L306,306.8V334c0,2-2,4-4,4s-4-1.6-4-4v-40c0-2,1.6-4,4-4c1.2,0,2.4,0.8,3.2,1.6
		l20.8,29.6V294c0-2,1.6-4,4-4c2,0,4,1.6,4,4v40c0,2-1.6,4-4,4C328.8,338.4,327.6,337.6,326.8,336.4z"/>
	<path style="fill:#FF7058;" d="M374.4,290.4c2,0,4,1.6,4,4s-2,4-4,4h-8v36c0,2-2,4-4,4s-4-1.6-4-4v-36h-8c-2,0-4-1.6-4-4
		c0-2,1.6-4,4-4H374.4z"/>
	<path style="fill:#FF7058;" d="M256.8,225.6c2.4,0,4,2,4,4c0,2.4-2,4-4,4h-20.4V246h16.4c2.4,0,4,2,4,4c0,2.4-2,4-4,4h-16.4v16.4
		c0,2.4-2,4-4,4c-2.4,0-4-2-4-4v-40.8c0-2.4,2-4,4-4H256.8z"/>
	<path style="fill:#FF7058;" d="M270.4,250.4c0-13.6,10.8-24.8,23.6-24.8c13.2,0,23.6,11.2,23.6,24.8s-10.8,24.8-23.6,24.8
		C281.2,275.2,270.4,264,270.4,250.4z M278.8,250.4c0,9.2,6.8,16.4,15.6,16.4c8.4,0,15.6-7.2,15.6-16.4c0-9.2-6.8-16.4-15.6-16.4
		C285.6,234,278.8,241.2,278.8,250.4z"/>
	<path style="fill:#FF7058;" d="M363.2,242.4L363.2,242.4c0-4.4-1.6-8-4-10.8l0,0c-3.2-3.6-7.6-6-12.8-6h-11.6c-2.4,0-4,2-4,4v41.2
		c0,2.4,2,4,4,4c2.4,0,4-2,4-4v-12h7.2l8.8,14.4c2,3.2,5.2,1.6,5.6,1.2c1.2-0.8,3.2-2.8,1.2-5.6l-7.6-12
		C359.6,254,363.2,248.8,363.2,242.4z M346.4,250.4h-7.2V234h7.2c4.4,0,8.4,3.6,8.4,8.4C354.4,246.8,350.8,250.4,346.4,250.4z"/>
	<path style="fill:#FF7058;" d="M246,306.4L246,306.4c0-4.4-1.6-8-4-10.8l0,0c-3.2-3.6-7.6-6-12.8-6h-11.6c-2.4,0-4,2-4,4v41.2
		c0,2.4,2,4,4,4c2.4,0,4-2,4-4v-12h7.2l8.8,14.4c2,3.2,5.2,1.6,5.6,1.2c1.2-0.8,3.2-2.8,1.2-5.6l-7.6-12
		C242.4,318,246,312.8,246,306.4z M229.2,314.4H222V298h7.2c4.4,0,8.4,3.6,8.4,8.4C237.6,310.8,233.6,314.4,229.2,314.4z"/>
</g>
</svg>