<?xml version="1.0" encoding="utf-8"?>
<!-- Uploaded to: SVG Repo, www.svgrepo.com, Generator: SVG Repo Mixer Tools -->
<svg xmlns="http://www.w3.org/2000/svg" xmlns:xlink="http://www.w3.org/1999/xlink" version="1.1" id="webnetwork"  viewBox="0 0 207.7489 206.1416" enable-background="new 0 0 207.7489 206.1416" xml:space="preserve" width="512" height="512">
<g>
	<polygon fill="#5CB0FF" points="110.7637,174.3193 105.0527,194.3193 198.4434,194.3193 192.7324,174.3193  "/>
	<rect x="111.748" y="118.3193" fill="#D0E8FF" width="80" height="48"/>
	<path fill="#1C71DA" d="M87.748,170.3193v-76h42.989c0.0146,0.7878,0.0696,1.5579,0.0696,2.3516c0,2.2109,1.7891,4,4,4   s4-1.7891,4-4c0-0.7937-0.0603-1.5632-0.0745-2.3516h25.0159h5.6484h2.3516c0-46.3164-37.6836-84-84-84h-8v0.4053   c-42.5754,4.0447-76,39.9785-76,83.5947c0,46.3164,37.6836,84,84,84c2.2109,0,4-1.7891,4-4S89.959,170.3193,87.748,170.3193z    M79.748,168.9949c-19.9287-6.438-35.0586-36.3945-35.0586-72.324c0-0.7937,0.0549-1.5637,0.0696-2.3516h34.989V168.9949z    M45.1655,86.3193C47.75,55.1135,61.7729,30.157,79.748,24.3506v61.9688H45.1655z M87.748,86.3193v-63.293   c21.6829,0,39.6248,27.5808,42.5825,63.293H87.748z M163.3181,86.3193h-24.9685c-2.3884-29.9812-14.96-54.8911-31.9993-65.6013   C136.7681,28.4146,159.9641,54.417,163.3181,86.3193z M69.1458,20.718C52.1064,31.4282,39.5349,56.3381,37.1465,86.3193H12.178   C15.532,54.417,38.728,28.4146,69.1458,20.718z M11.748,94.3193h25.0159c-0.0142,0.7883-0.0745,1.5579-0.0745,2.3516   c0,28.5327,9.217,53.6572,23.1233,68.2603C31.7031,153.769,11.748,126.3567,11.748,94.3193z"/>
	<path fill="#1C71DA" d="M207.5957,197.2217l-7.8477-27.4668v-55.4355c0-2.2109-1.7891-4-4-4h-88c-2.2109,0-4,1.7891-4,4v55.4355   l-7.8477,27.4668c-0.3438,1.207-0.1016,2.5039,0.6523,3.5078c0.7578,1,1.9414,1.5898,3.1953,1.5898h104   c1.2539,0,2.4375-0.5898,3.1953-1.5898C207.6973,199.7256,207.9395,198.4287,207.5957,197.2217z M111.748,118.3193h80v48h-80   V118.3193z M105.0527,194.3193l5.7109-20h81.9688l5.7109,20H105.0527z"/>
</g>
<path fill="#FF5D5D" d="M4,22.1416c-1.0234,0-2.0479-0.3906-2.8281-1.1719c-1.5625-1.5615-1.5625-4.0947,0-5.6562L15.3145,1.1719  c1.5625-1.5625,4.0957-1.5625,5.6562,0c1.5625,1.5615,1.5625,4.0947,0,5.6562L6.8281,20.9697  C6.0469,21.751,5.0234,22.1416,4,22.1416z"/>
<path fill="#FF5D5D" d="M18.1426,22.1416c-1.0234,0-2.0469-0.3906-2.8281-1.1719L1.1719,6.8281  c-1.5625-1.5615-1.5625-4.0947,0-5.6562c1.5605-1.5625,4.0938-1.5625,5.6562,0l14.1426,14.1416  c1.5625,1.5615,1.5625,4.0947,0,5.6562C20.1904,21.751,19.166,22.1416,18.1426,22.1416z"/>
<path fill="#00D40B" d="M30,206.1416c-7.7197,0-14-6.2803-14-14s6.2803-14,14-14s14,6.2803,14,14S37.7197,206.1416,30,206.1416z   M30,186.1416c-3.3086,0-6,2.6914-6,6s2.6914,6,6,6s6-2.6914,6-6S33.3086,186.1416,30,186.1416z"/>
<path fill="#FFC504" d="M191.3145,76.7695c-1.0605,0-2.0781-0.4219-2.8281-1.1719l-11.3145-11.3145  c-0.75-0.75-1.1719-1.7676-1.1719-2.8281s0.4219-2.0781,1.1719-2.8281l11.3145-11.3135c1.5625-1.5625,4.0938-1.5625,5.6562,0  l11.3135,11.3135c1.5625,1.5615,1.5625,4.0947,0,5.6562l-11.3135,11.3145C193.3926,76.3477,192.375,76.7695,191.3145,76.7695z   M185.6572,61.4551l5.6572,5.6572l5.6572-5.6572l-5.6572-5.6572L185.6572,61.4551z"/>
</svg>